<svg width="40" height="40" viewBox="0 0 40 40" fill="none" xmlns="http://www.w3.org/2000/svg">
<mask id="mask0_206_643" style="mask-type:alpha" maskUnits="userSpaceOnUse" x="4" y="4" width="32" height="32">
<rect x="4" y="4" width="32" height="32" fill="#D9D9D9"/>
</mask>
<g mask="url(#mask0_206_643)">
<path d="M13.2283 20.6665L20.4793 27.9179C20.6093 28.0477 20.6773 28.2007 20.6833 28.3769C20.6893 28.5529 20.6188 28.7144 20.4716 28.8615C20.3248 29.0033 20.1675 29.0755 20 29.0782C19.8324 29.0807 19.6752 29.0084 19.5283 28.8615L11.4206 20.7539C11.3042 20.6374 11.2225 20.5185 11.1756 20.3972C11.1285 20.2759 11.105 20.1434 11.105 19.9999C11.105 19.8563 11.1285 19.7239 11.1756 19.6025C11.2225 19.4812 11.3042 19.3623 11.4206 19.2459L19.5283 11.1382C19.653 11.0135 19.8046 10.9469 19.9833 10.9382C20.162 10.9298 20.3248 10.9964 20.4716 11.1382C20.6188 11.2853 20.6923 11.4439 20.6923 11.6139C20.6923 11.7841 20.6188 11.9427 20.4716 12.0895L13.2283 19.3332H28.6666C28.8564 19.3332 29.015 19.3969 29.1423 19.5242C29.2696 19.6515 29.3333 19.8101 29.3333 19.9999C29.3333 20.1897 29.2696 20.3482 29.1423 20.4755C29.015 20.6029 28.8564 20.6665 28.6666 20.6665H13.2283Z" fill="white"/>
</g>
</svg>
