<svg width="40" height="40" viewBox="0 0 40 40" fill="none" xmlns="http://www.w3.org/2000/svg">
<mask id="mask0_206_651" style="mask-type:alpha" maskUnits="userSpaceOnUse" x="4" y="4" width="32" height="32">
<rect x="4" y="4" width="32" height="32" fill="#D9D9D9"/>
</mask>
<g mask="url(#mask0_206_651)">
<path d="M26.7717 20.6664H11.3334C11.1436 20.6664 10.985 20.6028 10.8577 20.4754C10.7304 20.3481 10.6667 20.1896 10.6667 19.9998C10.6667 19.81 10.7304 19.6514 10.8577 19.5241C10.985 19.3968 11.1436 19.3331 11.3334 19.3331H26.7717L19.5207 12.0818C19.3907 11.952 19.3227 11.799 19.3167 11.6228C19.3107 11.4468 19.3812 11.2852 19.5284 11.1381C19.6752 10.9963 19.8325 10.9241 20 10.9214C20.1676 10.919 20.3248 10.9912 20.4717 11.1381L28.5794 19.2458C28.6958 19.3622 28.7775 19.4811 28.8244 19.6024C28.8715 19.7238 28.895 19.8562 28.895 19.9998C28.895 20.1433 28.8715 20.2758 28.8244 20.3971C28.7775 20.5184 28.6958 20.6373 28.5794 20.7538L20.4717 28.8614C20.347 28.9861 20.1954 29.0528 20.0167 29.0614C19.838 29.0699 19.6752 29.0032 19.5284 28.8614C19.3812 28.7143 19.3077 28.5558 19.3077 28.3858C19.3077 28.2156 19.3812 28.057 19.5284 27.9101L26.7717 20.6664Z" fill="white"/>
</g>
</svg>
