<svg width="32" height="32" viewBox="0 0 32 32" fill="none" xmlns="http://www.w3.org/2000/svg">
<g clip-path="url(#clip0_1_1802)">
<mask id="mask0_1_1802" style="mask-type:alpha" maskUnits="userSpaceOnUse" x="0" y="0" width="32" height="32">
<rect width="32" height="32" fill="#D9D9D9"/>
</mask>
<g mask="url(#mask0_1_1802)">
<path d="M5.33341 26.6667C4.60008 26.6667 3.9723 26.4056 3.45008 25.8834C2.92786 25.3612 2.66675 24.7334 2.66675 24V8.00004C2.66675 7.26671 2.92786 6.63893 3.45008 6.11671C3.9723 5.59449 4.60008 5.33337 5.33341 5.33337H26.6667C27.4001 5.33337 28.0279 5.59449 28.5501 6.11671C29.0723 6.63893 29.3334 7.26671 29.3334 8.00004V24C29.3334 24.7334 29.0723 25.3612 28.5501 25.8834C28.0279 26.4056 27.4001 26.6667 26.6667 26.6667H5.33341ZM16.0001 17.1C16.1112 17.1 16.2279 17.0834 16.3501 17.05C16.4723 17.0167 16.589 16.9667 16.7001 16.9L26.1334 11C26.3112 10.8889 26.4445 10.75 26.5334 10.5834C26.6223 10.4167 26.6667 10.2334 26.6667 10.0334C26.6667 9.58893 26.4779 9.2556 26.1001 9.03337C25.7223 8.81115 25.3334 8.82226 24.9334 9.06671L16.0001 14.6667L7.06675 9.06671C6.66675 8.82226 6.27786 8.81671 5.90008 9.05004C5.5223 9.28337 5.33341 9.61115 5.33341 10.0334C5.33341 10.2556 5.37786 10.45 5.46675 10.6167C5.55564 10.7834 5.68897 10.9112 5.86675 11L15.3001 16.9C15.4112 16.9667 15.5279 17.0167 15.6501 17.05C15.7723 17.0834 15.889 17.1 16.0001 17.1Z" fill="#3DCFB6"/>
</g>
</g>
<defs>
<clipPath id="clip0_1_1802">
<rect width="32" height="32" fill="white"/>
</clipPath>
</defs>
</svg>
