<svg width="36" height="36" viewBox="0 0 36 36" fill="none" xmlns="http://www.w3.org/2000/svg">
<g clip-path="url(#clip0_1_68)">
<mask id="mask0_1_68" style="mask-type:luminance" maskUnits="userSpaceOnUse" x="5" y="5" width="25" height="25">
<path d="M29.6 5.6H5.60001V29.6H29.6V5.6Z" fill="white"/>
</mask>
<g mask="url(#mask0_1_68)">
<mask id="mask1_1_68" style="mask-type:alpha" maskUnits="userSpaceOnUse" x="5" y="5" width="25" height="25">
<path d="M29.6 5.6H5.60001V29.6H29.6V5.6Z" fill="#D9D9D9"/>
</mask>
<g mask="url(#mask1_1_68)">
<path d="M9.60006 25.6C9.05006 25.6 8.57923 25.4042 8.18756 25.0125C7.7959 24.6209 7.60007 24.1501 7.60007 23.6V11.6C7.60007 11.05 7.7959 10.5792 8.18756 10.1875C8.57923 9.79587 9.05006 9.60003 9.60006 9.60003H25.6C26.1501 9.60003 26.6209 9.79587 27.0126 10.1875C27.4042 10.5792 27.6001 11.05 27.6001 11.6V23.6C27.6001 24.1501 27.4042 24.6209 27.0126 25.0125C26.6209 25.4042 26.1501 25.6 25.6 25.6H9.60006ZM17.6001 18.425C17.6834 18.425 17.7709 18.4125 17.8626 18.3875C17.9542 18.3625 18.0418 18.325 18.1251 18.275L25.2001 13.85C25.3334 13.7667 25.4334 13.6625 25.5001 13.5375C25.5667 13.4125 25.6 13.275 25.6 13.125C25.6 12.7917 25.4584 12.5417 25.1751 12.375C24.8917 12.2084 24.6001 12.2167 24.3001 12.4L17.6001 16.6L10.9001 12.4C10.6001 12.2167 10.3084 12.2125 10.0251 12.3875C9.74173 12.5625 9.60006 12.8084 9.60006 13.125C9.60006 13.2917 9.6334 13.4375 9.70007 13.5625C9.76673 13.6876 9.86673 13.7834 10.0001 13.85L17.0751 18.275C17.1584 18.325 17.2459 18.3625 17.3376 18.3875C17.4292 18.4125 17.5168 18.425 17.6001 18.425Z" fill="#3DCFB6"/>
</g>
</g>
</g>
<circle cx="17.6" cy="17.6" r="17.3" stroke="#3DCFB6" stroke-width="0.6"/>
<defs>
<clipPath id="clip0_1_68">
<rect width="24" height="24" fill="white" transform="translate(5.60001 5.6)"/>
</clipPath>
</defs>
</svg>
