<svg width="48" height="48" viewBox="0 0 48 48" fill="none" xmlns="http://www.w3.org/2000/svg">
<mask id="mask0_1_1817" style="mask-type:alpha" maskUnits="userSpaceOnUse" x="0" y="0" width="48" height="48">
<rect width="48" height="48" fill="#D9D9D9"/>
</mask>
<g mask="url(#mask0_1_1817)">
<path d="M8.769 34.5385C8.55133 34.5385 8.36867 34.4637 8.221 34.314C8.07367 34.1647 8 33.9795 8 33.7585C8 33.5375 8.07367 33.3558 8.221 33.2135C8.36867 33.0712 8.55133 33 8.769 33H39.231C39.4487 33 39.6313 33.0748 39.779 33.2245C39.9263 33.3738 40 33.559 40 33.78C40 34.001 39.9263 34.1827 39.779 34.325C39.6313 34.4673 39.4487 34.5385 39.231 34.5385H8.769ZM8.769 24.769C8.55133 24.769 8.36867 24.6943 8.221 24.545C8.07367 24.3953 8 24.21 8 23.989C8 23.768 8.07367 23.5863 8.221 23.444C8.36867 23.302 8.55133 23.231 8.769 23.231H39.231C39.4487 23.231 39.6313 23.3057 39.779 23.455C39.9263 23.6047 40 23.79 40 24.011C40 24.232 39.9263 24.4137 39.779 24.556C39.6313 24.698 39.4487 24.769 39.231 24.769H8.769ZM8.769 15C8.55133 15 8.36867 14.9252 8.221 14.7755C8.07367 14.6262 8 14.441 8 14.22C8 13.999 8.07367 13.8173 8.221 13.675C8.36867 13.5327 8.55133 13.4615 8.769 13.4615H39.231C39.4487 13.4615 39.6313 13.5363 39.779 13.686C39.9263 13.8353 40 14.0205 40 14.2415C40 14.4625 39.9263 14.6442 39.779 14.7865C39.6313 14.9288 39.4487 15 39.231 15H8.769Z" fill="white"/>
</g>
</svg>
